<svg xmlns="http://www.w3.org/2000/svg" xmlns:xlink="http://www.w3.org/1999/xlink" id="Laag_1" x="0px" y="0px" viewBox="0 0 3401.6 1700.8" style="enable-background:new 0 0 3401.6 1700.8;" xml:space="preserve"><style type="text/css">	.st0{fill:#FFFFFF;}	.st1{fill:#FFCC00;}</style><g>	<g>		<g>			<polygon class="st0" points="298.6,933.9 269,962.4 298.7,988.3 298.6,1273.7 387,1353.7 751.5,1353.7 843,1273.7 843,988.7     872.8,961.4 843,933.6 843,890.2 653.9,890.2 653.9,1032.2 701.5,1032.2 701.7,1212.2 436.9,1212.2 436.9,794 389.9,751     436.9,707 436.9,577.8 388.2,577.8 298.6,658.3    "></polygon>			<polygon class="st0" points="702.3,765.8 843.9,765.8 843.9,645.7 752.1,565.2 652.5,565.2 652.4,706.7 702.3,706.7    "></polygon>			<polygon class="st0" points="226.1,777.6 255.4,750.3 226.1,722.5 226.4,538.5 474.5,538.5 473.9,722.5 444.2,750.3 473.9,777.6     474.3,867.1 474.4,867.1 474.4,1173.9 524,1173.9 615.8,1093.4 615.8,777.8 645.6,750.5 615.8,722.7 616,478 524.3,397 84.4,397     84.1,722.5 54.8,750.3 84.1,777.6 84.1,1173.9 263.2,1173.9 263.2,1032.4 226.1,1032.4    "></polygon>		</g>		<g>			<path class="st0" d="M1279.7,589.5l45.7,41.4v140.5l14.8,14.2l-14.8,14v140.7l-45.7,41.2h-173.6V799.5l-14.6-14l14.6-14.2V589.5    H1279.7z M1254.9,799.5l-14.8-14l14.8-14.2V661.8h-78v109.5l14.6,14.2l-14.6,14V909h78V799.5z"></path>			<path class="st0" d="M1586.9,940.2l-46.2,41.2h-128.6l-45.2-40.9V799.5l-14.8-14l14.8-14.2V589.5h70.5v181.9l14.8,14.2l-14.8,14    V909h79V799.5l-14.8-14l14.8-14.2V589.5h70.5v181.9l14.6,14.2l-14.6,14L1586.9,940.2L1586.9,940.2z"></path>			<path class="st0" d="M1828.9,661.8h-70v109.5l14.6,14.2l-14.6,14v181.9h-70.7V799.5l-14.8-14l14.8-14.2V661.8h-70v-72.3h210.7    V661.8z"></path>			<path class="st0" d="M2077.3,940.4l-46.2,40.9h-125.7l-45-40.9V799.5l-14.8-14l14.8-14.2V630.6l45-41.2h125.7l46.2,41.4v60.4    h-70.5v-29.4H1931v109.5l14.8,14.2l-14.8,14V909h75.8v-31.7h70.5V940.4z"></path>			<path class="st0" d="M2329.8,981.3h-70.5V821.7h-80v159.7h-70.5V799.5l-14.8-14l14.8-14.2V589.5h70.5v159.6h80V589.5h70.5v181.9    l14.8,14.2l-14.8,14V981.3z"></path>			<path class="st0" d="M2675.2,940.4l-45.7,40.9h-126.9l-45-40.9V799.5l-14.6-14l14.6-14.2V630.6l45.7-41.2h126.1l45.7,41.2V692    h-70.5v-30.2h-76.3v109.5l14.8,14.2l-14.8,14V909h76.3v-87.3h-48.1v-72.6h118.6v22.2l14.8,14.2l-14.8,14L2675.2,940.4    L2675.2,940.4z"></path>			<path class="st0" d="M2852.9,836.9v144.4h-71.5V836.4l-84.6-247h72.4l48.1,145.9l47.4-145.9h74.9L2852.9,836.9z"></path>			<path class="st0" d="M3225.2,981.3h-70.7V760.6L3093,895.3l-61.2-134.7v220.8h-70.5V799.5l-14.8-14l14.8-14.2V589.5h70.5    l61.2,134.7l61.5-134.7h70.7v181.9l14.6,14.2l-14.6,14V981.3z"></path>		</g>		<g>			<path class="st1" d="M1176.5,1117.5c-1-0.5-2.5-0.8-4.1-0.8c-3.2,0-7.2,1.1-12,3.2c-7.8,3.4-15.9,8.4-24.1,14.9    c-8.2,6.4-15.1,13.1-20.4,19.7c-5.1,6.3-7.6,11.7-7.6,16c0,2.9,0.9,5.2,2.7,6.9c1.8,1.9,5,3.8,9.5,5.9c9,4.3,10.7,6.3,10.7,8.5    c0,1.8-1.1,3.9-6.7,8.3c-3.9,3.1-8.8,6.2-14.7,9.5c-12.2,6.8-13.1,10.3-13.1,11.2c0,1.1,1.3,2,2.4,2.7c0.4,0.1,1.4,0.3,2.7,0.3    c3.4,0,8.1-1.3,13.9-3.8c8.3-3.6,15.5-8.3,21.4-14.1c4.9-5.4,7.5-10.5,7.5-15.2c0-6.5-5.2-12.6-15.5-18.2c-3.3-1.6-5.2-3-5.2-5.2    c0-1.5,1-2.8,2-3.8c3.9-4.9,10.7-11.2,19.9-18.4c13.2-10.4,15.9-11.2,17.6-11.2h4l-1.3,3.7c-9.1,22.4-10.2,26.9-10.3,27.8    c0,0.6,0.2,1.5,1.3,2.4c0.7,0.6,1.1,0.7,1.4,0.7c1.3,0,6.4-1.7,18.5-23.9c5.3-10.1,6.4-14.8,6.4-17.1    C1183.2,1123.2,1181,1120,1176.5,1117.5z"></path>			<path class="st1" d="M1315.7,1091.9c9.3,0,16.1-0.1,20.3-0.4c3.6-0.2,5.1-0.5,5.7-0.7c-0.1-0.1-0.2-0.3-0.3-0.5    c-0.1-0.1-2.2-2.3-18.3-4.6c-11.7-1.6-25.8-2.8-42.1-3.4c-7.5-0.1-11.8-0.4-11.8-3.9c0-1.6,0.9-3.2,3.2-5.5l1.1-0.9    c6.1-6.6,6.4-8.9,6.4-9.3c0-0.9-1.2-1.8-2-2.2c-7.6-4.8-16.7,0.7-28.1,15.3c-1.5,2-2.7,3.4-3.7,4.3c-1.2,1.1-2.4,1.8-3.7,2.1    c-0.9,0.2-2.2,0.3-4,0.3c-22,0.4-44.3,2-66,4.7c-7.2,1.6-8.2,3.1-8.3,3.1c-0.4,2.2-0.5,3-0.5,3.2c0,1.1,0.3,1.4,0.4,1.4    c0-0.1,1.5,0.6,8.2,0.6c9.7,0,28.6-1,56.3-3.1c0,0,0,0,0,0c2.5,0,4.1,1.7,4.1,4.1c0,2.2-1.5,6.9-12.6,24.4    c-19.4,30.9-33,56.1-40.3,74.9c-7.3,18.7-11,31.6-11,38.5c0,3.5,0.7,5.9,2.2,7.2c0.5,0.3,1.1,0.6,1.5,0.6c0.9,0,2.5-1.7,4.1-6.4    c18.5-47.1,44.5-93.8,77.2-139l0.5-0.6c2.6-2,10.9-4,53.2-4L1315.7,1091.9L1315.7,1091.9z"></path>			<path class="st1" d="M1465.9,1169.9c0-0.7,0-2.1,4.6-17.4c3-10.3,4.5-17.6,4.5-21.8c0-1.5-0.1-2.8-0.4-3.9    c-0.2-0.7-0.8-2.6-5.1-2.6c-3.2,0-14.3,5.2-53.2,40.2c-2.3,2.1-3.9,3.7-4.9,4.5c-1.5,1.4-2.3,2.1-3.5,2.1h-1.1l-1.6-1.6l-0.2-1.3    c0-1,0-1.4,6.4-11.3c5.7-8.9,10.2-15.4,13.6-19.4c4.6-5.9,5.5-9.5,5.5-11.5c0-1.4-0.4-3.6-3.8-5.4c-1.2-0.6-2.3-0.9-3.4-0.9    c-2.9,0-9.8,3.1-23.2,24c-7.9,12.4-13.9,23.1-17.9,31.8l-0.3,0.8l-0.7,0.4c-0.7,0.4-1.4,0.8-2.2,1.4    c-19,11.8-32.7,17.6-41.8,17.6c-5.2,0-14-2.1-14-15.9l0.2-3.4c0.4-2.1,0.6-3.6,0.6-5c0-2.3-0.4-4.6-1.3-6.8    c-0.9-1.7-1.4-3.7-1.4-5.7c0-7.7-2.3-13.2-7.1-16.9c-6.8-5.2-13.9-6.6-22.1-5.1c-10,2.2-19.8,6.9-29.1,14    c-9.4,7.2-17.3,15.3-23.6,24.2c-7.7,10.9-9.6,16.3-9.9,18.9c-0.6,5.5-0.7,7-0.7,7.4c0,5.2,2.4,8.5,7.4,10.6c3.7,1.6,9,1,15.8-1.6    c7.4-2.8,18.3-8.7,32.5-17.2c0.4-0.3,1.1-0.8,1.9-1.2c11-6.9,14.2-7.9,15.9-7.9h2.7v3.5c0,1.4,0.6,4.1,3.5,8.9    c2.6,4.3,5.7,7.4,9.4,9.2c4.6,2.3,7.1,2.8,8.4,2.8c7.4,0,19.8-4.7,36.9-13.9c3.5-1.8,6.6-3.5,9.4-5.2l5.4-3.1l-1.6,6.1    c-2,7.9-3.1,13.4-3.1,16.4c0,7.5,3.2,8.8,4.3,9.2c1.1,0.4,2.5,0.4,4-0.4c0.9-0.7,3-2.5,6.4-7.2c18.6-24.3,40.1-44.3,64-59.6    l0.7-0.4h3.4l0.2,3.2c0,0.7-0.1,2.2-1,7c-1,3.7-1.5,6.8-1.5,9.3c0,2.9,0.6,5.3,1.7,7.1c2.1,3.4,5.6,5,10.7,5c1.1,0,2.1-0.2,3-0.7    c1-0.5,1.2-0.9,1.2-1.7c0-0.1,0-0.2,0-0.3C1468.4,1177.8,1465.9,1175.3,1465.9,1169.9z M1296.4,1170.4c-6,4.7-13.3,9.8-21.6,15.2    c-8.4,5.4-16.2,10-23.2,13.6c-4.3,2.2-5.8,2.6-6.9,2.6c-2,0-3.1-1.5-3.1-3c0-1.1,0.4-2.4,2.7-6.2c6.4-10.4,13.9-19.4,22.4-26.8    c8.7-7.5,15.2-11.9,19.9-13.3c6.1-1.8,8.3-2.1,9.4-2.1c5,0,8.7,2.8,10.2,7.8l0.1,0.8C1306.4,1161.2,1304.7,1163.9,1296.4,1170.4z    "></path>			<path class="st1" d="M1637.1,1091.5c3.6-0.2,5.1-0.5,5.7-0.7c-0.1-0.1-0.2-0.3-0.3-0.5c-0.1-0.1-2.2-2.3-18.3-4.6    c-11.7-1.6-25.8-2.8-42.1-3.4c-7.5-0.1-11.8-0.4-11.8-3.9c0-1.6,0.9-3.2,3.2-5.5l1.1-0.9c6.1-6.6,6.4-8.9,6.4-9.3    c0-0.9-1.2-1.8-2-2.2c-7.6-4.8-16.7,0.7-28.1,15.3c-1.5,2-2.7,3.4-3.7,4.3c-1.2,1.1-2.4,1.8-3.7,2.1c-0.9,0.2-2.2,0.3-4,0.3    c-22,0.4-44.3,2-66,4.7c-7.2,1.6-8.2,3.1-8.3,3.1c-0.4,2.2-0.5,3-0.5,3.2c0,1.1,0.3,1.4,0.4,1.4c0-0.1,1.5,0.6,8.2,0.6    c9.7,0,28.6-1,56.3-3.1c0,0,0,0,0,0c2.5,0,4.1,1.7,4.1,4.1c0,2.2-1.5,6.9-12.6,24.4c-19.4,30.9-33,56.1-40.3,74.9    c-7.3,18.7-11,31.6-11,38.5c0,3.5,0.7,5.9,2.2,7.2c0.5,0.3,1.1,0.6,1.5,0.6c0.9,0,2.5-1.7,4.1-6.4c18.5-47.1,44.5-93.8,77.2-139    l0.5-0.6c2.6-2,10.9-4,53.2-4h8.2C1626.1,1091.9,1632.9,1091.8,1637.1,1091.5z"></path>			<path class="st1" d="M1750.5,1127.6L1750.5,1127.6c1.3,0.7,2.5,1,3.7,1c3.5,0,5.9-1.5,7.7-4.7c0.6-1.4,0.9-3,0.9-4.6    c0-2.1-0.6-4.2-1.8-6.3c-2.1-3.3-5-4.9-8.8-4.9c-2.7,0.4-4.6,1.5-5.6,3.4c-1.2,2.3-1.8,4.5-1.8,6.4    C1744.9,1122.6,1746.7,1125.7,1750.5,1127.6z"></path>			<path class="st1" d="M1886,1117.1c-1.2,0-1.5,0.2-1.5,0.2c-0.1,0.1-0.6,0.5-1.8,2.2c-0.7,1-4,5.3-24.7,30.3    c-50.8,62.5-54.2,62.5-56.5,62.5c-1.2,0-3.9-0.6-3.9-5.8c0-6.8,2.8-18.9,8.4-37c3.4-10.6,7.2-20.5,11.2-29.4    c2.1-4.8,3.2-8.7,3.2-11.5c0-3.3-1.1-5.6-6.3-5.6c-2.1,0-3.9,0.8-5.6,2.4c-2.4,2.3-5.1,6.7-7.9,13c-6.3,14.1-10.7,25.7-13.1,34.6    l-0.3,1.3l-1.2,0.5c-3.6,1.4-8.2,3.7-13.6,6.9c-24.9,15.3-40.7,22.8-48.3,22.8c-2.6,0-5.4-1.6-5.4-5.9c0-2.1,0.6-4.8,1.7-8.2    c1.9-5.9,4.6-11.8,8.1-17.5c3.4-5.7,7.3-11.1,11.5-15.9c3.6-4.2,5.5-7.8,5.5-10.5c0-2.1-1-3.8-3.1-5.3c-3.4-2.6-7.2-1.8-12.3,2.4    c-5.8,4.7-11.5,12.8-17,24.1c-1,2.1-1.9,4.1-2.7,6.2l-0.4,1l-1.1,0.4c-3.9,1.5-8.7,3.8-14.2,6.9c-13.3,7.4-32.6,19.6-57.6,36.2    c-8,5.9-16.7,11.3-25.8,16.2l-0.6,0.3h-0.7c-1.2,0-3.1-0.8-3.1-3.8c0-1.3,0.3-3.9,2.6-11.4c2.5-7.9,5.9-16.8,10.1-26.5    c22.8-51.4,47.8-91.4,74.4-118.8c4.9-5.2,7.4-9.7,7.4-13.2c0-1.5,0-5-8.1-5.3c-4.4,0.6-13.9,6.1-31.4,29.3    c-14.4,19.1-28.4,42.5-41.8,69.6c-17.8,36.3-26.8,62.6-26.8,78c0,11.8,5.1,14.3,8.9,15.2c1.3,0.4,2.4,0.6,3.6,0.6    c3.1,0,7.4-1.7,12.9-5.1c4.6-2.7,11.1-6.9,19.4-12.7c28.3-19.3,49.2-33.3,62.2-41.7l5.3-3.4l-1.3,6.2c-0.7,3.5-1.1,6.6-1.1,9.3    c0,13,6.3,14.6,11.8,14.6c5.1,0,11.8-1.8,19.9-5.2c5.7-2.3,16.9-8.6,33.2-18.4c4.9-3,9.3-5.8,12.9-8.5l4.4-3.2l-0.3,5.5    c-0.5,10.5-0.6,13.9-0.6,14.9c0,13,3.3,21,9.8,23.9c0.6,0.3,1.4,0.4,2.3,0.4c3.3,0,9.6-2.2,20.7-12.4    c11.3-10.4,27.1-28.6,47-54.2c19.5-25.6,23.6-35.8,23.6-39.8C1888.1,1117.8,1888.1,1117.1,1886,1117.1z"></path>			<path class="st1" d="M1924.8,1127.6L1924.8,1127.6c1.3,0.7,2.5,1,3.7,1c3.5,0,5.9-1.5,7.7-4.7c0.6-1.4,0.9-3,0.9-4.6    c0-2.1-0.6-4.2-1.8-6.3c-2.1-3.3-5-4.9-8.8-4.9c-2.7,0.4-4.6,1.5-5.6,3.4c-1.2,2.3-1.8,4.5-1.8,6.4    C1919.1,1122.6,1920.9,1125.7,1924.8,1127.6z"></path>			<path class="st1" d="M2058.1,1121.4c-1.5,0-5.2,1-12.7,7.9l-23.2,18.8c-21.1,16.6-35.8,28.9-43.7,36.6c-0.7,0.9-1.8,1.9-3.1,2.7    l-7.2,4.4l3.4-7.8c4.1-9.3,8.9-18.3,14.2-26.8c3.9-6.5,4.7-10.1,4.7-12c0-1-0.3-2.6-3.3-4.2c-1.2-0.8-2.1-1.1-2.9-1.1    c-1.3,0-2.8,0.8-4.3,2.3c-3.3,3.2-7.7,10.2-13.2,20.9c-1.8,3.6-3.4,7-4.9,10.2l-0.4,1l-1,0.4c-3.7,1.4-8.3,3.7-13.7,6.9    c-24.9,15.3-40.7,22.8-48.3,22.8c-2.6,0-5.4-1.6-5.4-5.9c0-2.1,0.6-4.7,1.7-8.2c1.9-5.9,4.6-11.8,8.1-17.5    c3.4-5.7,7.3-11.1,11.5-15.9c3.6-4.2,5.5-7.8,5.5-10.5c0-2.1-1-3.8-3.1-5.3c-3.4-2.6-7.2-1.8-12.3,2.4    c-5.8,4.7-11.5,12.8-17,24.1c-6.4,13.7-9.7,25-9.7,33.6c0,13,6.3,14.6,11.8,14.6c5.1,0,11.7-1.8,19.9-5.2    c5.7-2.3,16.9-8.6,33.2-18.4c3.3-2,6.1-3.8,8.8-5.6l6.4-4.3l-2.4,7.3c-2,6.1-3,11.2-3,15c0,3.5,0.8,6,2.4,7.6    c1.3,1.2,2.5,1.8,3.6,1.8c0.4,0,1.8-0.2,4.9-2.8c2.6-2.2,6.4-5.7,11.1-10.5c16.6-17.4,35.1-33.4,55-47.7l6.2-4.6h0.9    c1.8,0,3.1,1.3,3.1,3c0,0.8-0.2,1.7-1.5,4.4c-13.3,29.6-21.1,50.2-23.3,61.3c-2.2,11.1-3.3,18.7-3.3,22.6c0,7,1.7,11.3,5.2,12.8    c0.4,0.1,1,0.2,1.6,0.2c1,0,1.4-0.2,1.4-0.3l-0.1-1.6c0-2.2,0.7-6.9,7.1-24.7c4.7-13.1,10-27.2,15.8-41.9    c5.9-14.9,10.7-26.3,14.5-34.1c7.3-16.1,8-20.3,8-21.4c0-1.4-0.6-2.8-1.7-4.3C2061.6,1122.4,2059.9,1121.4,2058.1,1121.4z"></path>			<path class="st1" d="M2145.5,1143.7h-2.2c-3,0-5.1-1.6-5.8-4.3c-4.6-9.6-12.1-11.9-23.3-7c-12.3,5.6-25.8,18.7-40.2,39    c-10.1,14.4-15.2,25.6-15.2,33.2c0,3.5,1.2,6.1,3.7,8c1.5,1.4,3.1,2,5,2c4.9,0,16.2-4.8,42.3-27.6c13.2-11.5,17-13.1,19.1-13.1    c2.1,0,3.6,1.5,3.6,3.6c0,1.2,0,3.1-14.3,31.8c-5.4,10.4-12.3,22.7-20.7,36.5c-8.4,13.8-16.3,26.2-23.6,36.9    c-10,14.7-13.3,17.5-15.1,18.3c-1,0.4-1.4,0.9-1.4,2c0,2.3,0.9,3.1,2.2,3.6c0.6,0.2,1.3,0.3,2.1,0.3c6.6-0.4,21.6-12.1,54.1-65.2    c26.3-43,39.6-72.3,39.6-87.4C2155.7,1147,2152.5,1143.7,2145.5,1143.7z M2087.2,1192.1c-6.2,5.5-7.5,5.9-8.8,5.9h-1.1l-1.6-1.6    l-0.2-1.3c0-1.3,0.5-3,7.1-11.2c9.1-12.3,19.7-23.4,31.7-32.8c3.6-2.7,5.1-3.2,6.2-3.2c1.8,0,3.9,1.1,3.9,6.3    C2124.5,1158,2120,1165.2,2087.2,1192.1z"></path>			<path class="st1" d="M2404.1,1122.2c-0.2-0.1-0.8-0.1-1.5-0.1c-7.4,0-28.1,12-85.3,69.4c-8.6,8.6-9.2,8.6-10.5,8.6h-2.6l-0.1-2.8    c0-0.9,0.3-2,1.8-5.1c10.3-23,23.9-48.7,40.4-76.3c4.8-8,9.6-15.6,14.2-22.6l0.8-1.2l11.8,0c9.2,0,16.1-0.1,20.3-0.4    c3.6-0.2,5.1-0.5,5.6-0.7c-0.1-0.1-0.2-0.3-0.3-0.5c-0.1-0.1-2.2-2.3-18.3-4.6c-2.9-0.4-6-0.8-9.2-1.1l-4.6-0.5l2.7-3.8    c6.6-9.1,12.6-16.1,17.7-20.8c3.2-2.9,4.8-5.7,4.8-8.3c0-2.8-0.9-5.8-7.5-6.2c-4,0.4-12.2,4.9-26.7,23.8c-3,3.9-6.1,8.2-9.3,12.7    l-0.8,1.2l-2.6-0.1c-2.2-0.1-4.3-0.2-6.6-0.3c-7.5-0.1-11.8-0.4-11.8-3.9c0-1.6,0.9-3.2,3.2-5.5l1.1-0.9c6.1-6.6,6.4-8.9,6.4-9.3    c0-0.9-1.2-1.8-2-2.2c-1.8-1.1-3.5-1.6-5.4-1.6c-6.3,0-13.9,5.7-22.7,16.9c-1.5,2-2.7,3.4-3.7,4.3c-1.2,1.1-2.4,1.8-3.7,2.1    c-0.9,0.2-2.2,0.3-4,0.3c-22,0.4-44.2,2-66,4.7c-7.2,1.6-8.2,3.1-8.3,3.1c-0.4,2.2-0.5,3-0.5,3.2c0,1.1,0.3,1.4,0.4,1.4    c0-0.1,1.3,0.5,8.1,0.5c9.7,0,28.6-1,56.3-3.1c0,0,0,0,0,0c2.5,0,4.1,1.7,4.1,4.1c0,2.2-1.5,6.9-12.6,24.4    c-19.4,30.8-33,56.1-40.3,74.9c-7.3,18.7-11,31.6-11,38.5c0,3.5,0.7,5.9,2.1,7.2c0.5,0.3,1.1,0.6,1.5,0.6c0.9,0,2.5-1.7,4.1-6.4    c18.5-47.1,44.5-93.8,77.2-139l0.5-0.6c1.7-1.3,6-2.8,24.3-3.5l5.1-0.2l-2.8,4.3c-5.8,9.1-11.4,18.7-16.8,28.5    c-11.9,21.7-21.1,40.9-27.1,57c-6,16-9,27.7-9,34.8c0,2.5,0.3,4.7,1,6.3c2.5,5.5,5.4,5.5,6.3,5.5c2.9,0,8.2-2.4,17.3-14    c14.8-18.6,36.1-39.4,63.2-61.8c14.5-12,15.2-12.2,15.9-12.5l3.5-1.2v3.7c0,0.9,0,2.5-6.9,21.1c-12,33.7-18.1,56.3-18.1,67.2    c0,6.6,1.9,10.7,5.8,12.5c1.6,0.8,2.8,0.9,4.5,0.4c1.8-0.7,2.8-1.5,2.8-2.4c0-0.3-0.3-0.8-1-1.4c-1.1-1.1-1.2-2.4-1.2-3.4    c0-3.6,2.2-14.1,21.6-64.3c8.6-21.7,10.6-29.4,10.7-32c0.1-4.1,0.2-6.3,0.2-6.6C2411.2,1127.8,2408.9,1124.1,2404.1,1122.2z"></path>			<path class="st1" d="M2543.6,1173.8c-0.2,0-1.2,0.2-4,2c-18.2,11.2-37.6,21.3-57.7,29.9c-20.6,8.8-35.5,13.2-45.6,13.2    c-6.8,0-10.6-3.8-10.6-10.3c0-2.9,1.4-7.3,4.3-13.3c0.6-1.1,1.9-3.6,4.2-3.6c1.2,0,2.2,0.7,2.9,1.2c4.1,2.6,10.1,2.8,17.7,0.2    c7.9-2.8,15.8-7.4,23.5-13.8c7.7-6.4,13.6-12.9,17.5-19.3c3.8-6.2,5.7-11.6,5.7-16c0-1.6-0.2-3.2-0.5-4.7    c-2.3-6-6.7-8.9-13.9-8.9c-7.8,0-16.7,3-26.5,8.9c-9.9,6-19.3,14.5-27.8,25.3c-13.6,17.9-20.5,33.1-20.5,45.1    c0,12.3,6.9,18.1,21.7,18.2c9,0,23.1-3.9,41.8-11.7c24.4-10.3,42.4-19.2,53.6-26.7c15-10,15.7-13.7,15.7-14.4    c0-0.2,0-0.7-0.8-1.3L2543.6,1173.8z M2449,1168.8c5.1-5.4,10.7-10.3,16.7-14.5c6.4-4.6,10.9-6.7,14-6.7c2.1,0,3.6,1.5,3.6,3.5    c0,1.8-0.8,4.4-10.2,13.5c-12.4,11.8-20.9,17.3-26.9,17.3c-2.1,0-3.6-1.5-3.6-3.5C2442.6,1176.5,2443.7,1174.2,2449,1168.8z"></path>			<polygon class="st1" points="2434.8,1194.6 2434.8,1194.6 2434.8,1194.6    "></polygon>			<path class="st1" d="M2623.5,1206.9l-8.2,1.7l2-4.7c4-9.5,8.6-18.9,13.5-28c15.3-28,30.7-50.3,45.7-66.2c3.1-3.2,4-3.9,5.3-3.9    h2.6l0.2,2.7c0,0.9,0,1.6-4.9,10.9c-5.6,10.9-9.1,18-10.4,21l0,0c-1.2,2.8-1.5,4.3-1.5,5.2c0,2.2,0.8,3.8,2.6,4.9    c1.5,0.8,3.3,1,5.2-0.1c0.6-0.7,2.3-3.1,7.2-11.3c4.1-6.8,8.4-14.4,12.8-22.4c4.4-7.9,7.5-14.1,9.3-18.2c1.9-4.6,2.9-8.7,2.9-12    c0-6.7-2.9-9.8-9.5-10.3c-7.9,0.1-18.4,7-31.2,20.4c-13.2,13.8-26.5,31.6-39.4,52.7c-13,21.1-23.4,42.9-31.2,64.8    c-1.9,5.6-2.8,7.1-3.4,7.9c-0.7,0.9-1.6,1.8-2.6,2.7c-2.8,2.7-4.2,5.4-4.2,8c0,1.3,0.4,2.7,1.2,4.2c0.8,1.7,1.1,2.9,1.1,3.9v1.4    c-1.4,8.5-2.1,16.4-2.1,24c0,6.3,0.6,11.9,1.8,16.7c2.7,10.9,7.7,16.2,15.3,16.2c4.3,0,7.7-2.2,10.5-6.8c3.6-6,5.5-13.4,5.5-22    c0-10.7-3.2-19.9-9.7-27.4c-3-3-4.5-5.9-4.5-8.6c0-3.8,3.2-7.2,10.2-10.8c42.6-18.8,55.2-26.3,58.9-29.1c-0.4,0-0.9-0.1-1.6-0.1    C2669.5,1194.2,2658.4,1196.4,2623.5,1206.9z M2606.5,1255.5c2.1,5.1,3,10,3,14.8c0,3.8-0.6,7.6-1.6,11.3l0,0.1    c-0.9,2.6-2.1,5.4-4.7,5.4c-3.6,0-4.6-3.9-4.6-18.3c0-10,0.8-15.5,4.8-15.5C2604.1,1253.4,2605.4,1253.7,2606.5,1255.5z"></path>			<path class="st1" d="M2738,1127.6L2738,1127.6c1.3,0.7,2.5,1,3.7,1c3.5,0,5.9-1.5,7.7-4.7c0.6-1.4,0.9-3,0.9-4.6    c0-2.1-0.6-4.2-1.8-6.3c-2.1-3.3-5-4.9-8.8-4.9c-2.7,0.4-4.6,1.5-5.6,3.4c-1.2,2.3-1.8,4.5-1.8,6.4    C2732.3,1122.6,2734.1,1125.7,2738,1127.6z"></path>			<path class="st1" d="M2922.1,1091.5c3.6-0.2,5.1-0.5,5.7-0.7c-0.1-0.1-0.2-0.3-0.3-0.5c-0.1-0.1-2.2-2.3-18.3-4.6    c-11.7-1.6-25.8-2.8-42.1-3.4c-7.5-0.1-11.8-0.4-11.8-3.9c0-1.6,0.9-3.2,3.2-5.5l1.1-0.9c6.1-6.6,6.4-8.9,6.4-9.3    c0-0.9-1.2-1.8-2-2.2c-1.8-1.1-3.5-1.6-5.4-1.6c-6.3,0-13.9,5.7-22.7,16.9c-1.5,2-2.7,3.4-3.7,4.3c-1.2,1.1-2.4,1.8-3.7,2.1    c-0.9,0.2-2.2,0.3-4,0.3c-22,0.4-44.2,2-66,4.7c-7.2,1.6-8.2,3.1-8.3,3.1c-0.4,2.2-0.5,3-0.5,3.2c0,1.1,0.3,1.4,0.4,1.4    c0-0.1,1.3,0.5,8.1,0.5c9.7,0,28.6-1,56.3-3.1c0,0,0,0,0,0c2.5,0,4.1,1.7,4.1,4.1c0,2.2-1.5,6.9-12.6,24.4    c-12.4,19.8-22.6,37.4-30.1,52.4l-0.5,1l-1,0.3c-3.7,1.3-8.7,3.8-14.9,7.3c-24.9,15.3-40.7,22.8-48.3,22.8    c-2.6,0-5.4-1.6-5.4-5.9c0-2.1,0.6-4.8,1.7-8.2c1.9-5.9,4.6-11.8,8.1-17.5c3.4-5.7,7.3-11.1,11.5-15.9c3.6-4.2,5.5-7.8,5.5-10.5    c0-2.1-1-3.8-3.1-5.3c-3.4-2.6-7.2-1.8-12.3,2.4c-5.7,4.7-11.5,12.8-17,24.1c-6.4,13.7-9.7,25-9.7,33.6c0,13,6.3,14.6,11.8,14.6    c5,0,11.7-1.8,19.9-5.2c5.7-2.3,16.9-8.6,33.2-18.4c3.2-2,6.1-3.8,8.7-5.5l7.4-4.9l-3.5,8.2c-0.8,1.9-1.6,3.8-2.3,5.7    c-7.3,18.7-11,31.6-11,38.5c0,3.5,0.7,5.9,2.1,7.2c0.5,0.3,1.1,0.6,1.5,0.6c0.9,0,2.5-1.7,4.1-6.4c18.5-47.1,44.5-93.8,77.2-139    l0.5-0.6c2.6-2,10.9-4,53.2-4h8.2C2911,1091.9,2917.9,1091.8,2922.1,1091.5z"></path>			<path class="st1" d="M3035.5,1127.6L3035.5,1127.6c1.3,0.7,2.5,1,3.7,1c3.5,0,5.9-1.5,7.7-4.7c0.5-1.4,0.9-3,0.9-4.6    c0-2.1-0.6-4.2-1.8-6.3c-2.1-3.3-5-4.9-8.8-4.9c-2.7,0.4-4.6,1.5-5.6,3.4c-1.2,2.3-1.8,4.5-1.8,6.4    C3029.9,1122.6,3031.7,1125.7,3035.5,1127.6z"></path>			<path class="st1" d="M3064.8,1234.1c0-3.8,3.2-7.2,10.2-10.8c42.6-18.8,55.2-26.3,58.9-29.1c-0.4,0-0.9-0.1-1.6-0.1    c-3.2,0.1-14.3,2.4-49.1,12.8l-8.2,1.7l2-4.7c4-9.5,8.6-18.9,13.5-28c15.3-28,30.7-50.3,45.6-66.2c3.1-3.2,4-3.9,5.3-3.9h2.6    l0.2,2.7c0,0.9,0,1.6-4.9,10.9c-5.6,10.9-9.1,18-10.4,21c-1.2,2.8-1.5,4.3-1.5,5.2c0,2.2,0.8,3.8,2.6,4.9c1.5,0.8,3.3,1,5.2-0.1    c0.6-0.7,2.3-3.1,7.2-11.3c4.1-6.8,8.4-14.4,12.8-22.4c4.4-7.9,7.5-14.1,9.3-18.2c1.9-4.6,2.9-8.7,2.9-12c0-6.7-2.9-9.8-9.5-10.3    c-7.9,0.1-18.4,7-31.2,20.4c-13.2,13.8-26.5,31.6-39.4,52.7c-4.4,7.1-8.7,14.9-13.3,23.9l-0.5,0.9l-1,0.3    c-3.8,1.3-8.8,3.8-14.9,7.4c-24.9,15.3-40.7,22.8-48.3,22.8c-2.6,0-5.4-1.6-5.4-5.9c0-2.1,0.6-4.8,1.7-8.2    c1.9-5.9,4.6-11.8,8.1-17.5c3.4-5.7,7.3-11.1,11.5-15.9c3.6-4.2,5.5-7.8,5.5-10.5c0-2.1-1-3.8-3.1-5.3c-3.4-2.6-7.2-1.8-12.3,2.4    c-5.7,4.7-11.5,12.8-17,24.1c-1,2.1-1.9,4.1-2.7,6.2l-0.4,1.1l-1.1,0.4c-3.9,1.5-8.7,3.8-14.2,6.9c-13.2,7.4-32.6,19.6-57.6,36.2    c-8.1,5.9-16.8,11.3-25.8,16.2l-0.6,0.3h-0.7c-1.1,0-3.1-0.8-3.1-3.8c0-1.3,0.3-3.9,2.6-11.4c2.5-7.9,5.9-16.8,10.1-26.5    c22.8-51.4,47.9-91.4,74.4-118.8c4.9-5.2,7.4-9.7,7.4-13.2c0-1.5,0-5-8.1-5.3c-4.4,0.6-13.9,6.1-31.4,29.3    c-14.4,19.1-28.5,42.5-41.8,69.6c-17.8,36.3-26.8,62.6-26.8,78c0,11.8,5.1,14.3,8.9,15.2c1.3,0.4,2.4,0.6,3.6,0.6    c3.1,0,7.4-1.7,12.9-5.1c4.5-2.7,11.1-6.9,19.4-12.7c28.3-19.3,49.2-33.3,62.1-41.7l5.3-3.4l-1.3,6.2c-0.7,3.5-1.1,6.6-1.1,9.3    c0,13,6.3,14.6,11.8,14.6c5,0,11.7-1.8,19.9-5.2c5.7-2.3,16.9-8.6,33.2-18.4c3.1-1.9,5.9-3.6,8.4-5.3l7.6-5.1l-3.8,8.4    c-4,9.1-7.1,16.6-9.6,23.8c-1.9,5.6-2.8,7.1-3.4,7.9c-0.7,0.9-1.6,1.8-2.6,2.7c-2.8,2.7-4.2,5.4-4.2,8c0,1.3,0.4,2.7,1.2,4.2    c0.8,1.7,1.1,2.9,1.1,3.9v1.4c-1.4,8.5-2.1,16.4-2.1,24c0,6.3,0.6,11.9,1.8,16.7c2.7,10.9,7.7,16.2,15.3,16.2    c4.3,0,7.7-2.2,10.5-6.8c3.6-6,5.5-13.4,5.5-22c0-10.7-3.2-19.9-9.7-27.4C3066.3,1239.7,3064.8,1236.9,3064.8,1234.1z     M3067.5,1281.6l0,0.1c-0.9,2.6-2.1,5.4-4.6,5.4c-3.6,0-4.6-3.9-4.6-18.3c0-10,0.8-15.5,4.8-15.5c0.7,0,2.1,0.3,3.2,2.1    c2.1,5.1,3,10,3,14.8C3069.1,1274.1,3068.6,1277.9,3067.5,1281.6z"></path>			<path class="st1" d="M3274.9,1174c-0.1-0.1-0.2-0.2-0.5-0.2c-0.1,0-1,0.1-4,2c-18.2,11.2-37.6,21.3-57.7,29.9    c-20.6,8.8-35.5,13.2-45.6,13.2c-6.8,0-10.6-3.8-10.6-10.3c0-2.9,1.4-7.3,4.3-13.3c0.6-1.1,1.9-3.6,4.2-3.6    c1.2,0,2.2,0.7,2.9,1.2c4.1,2.6,10.1,2.8,17.7,0.2c7.9-2.8,15.8-7.4,23.5-13.8s13.6-12.9,17.5-19.3c3.8-6.2,5.7-11.6,5.7-16    c0-1.6-0.2-3.2-0.5-4.7c-2.3-6-6.7-8.9-13.9-8.9c-7.8,0-16.7,3-26.5,8.9c-9.9,6-19.3,14.5-27.8,25.3    c-13.6,17.9-20.5,33.1-20.5,45.1c0,12.3,6.9,18.1,21.7,18.2c9,0,23.1-3.9,41.8-11.7c24.4-10.3,42.5-19.2,53.6-26.7    c15-10,15.7-13.7,15.7-14.4c0-0.2,0-0.7-0.8-1.3L3274.9,1174z M3179.9,1168.8c5.1-5.4,10.7-10.3,16.7-14.5    c6.4-4.6,10.9-6.7,14-6.7c2.1,0,3.6,1.5,3.6,3.5c0,1.8-0.8,4.4-10.2,13.5c-12.4,11.8-20.9,17.3-26.9,17.3c-2.1,0-3.6-1.5-3.6-3.5    C3173.4,1176.5,3174.5,1174.2,3179.9,1168.8z"></path>		</g>	</g>	<g>		<path class="st0" d="M3304.5,600.9c16,0,29,13,28.9,29.1c-0.1,15.9-13.1,28.8-29.1,28.7c-15.9-0.1-28.8-13.1-28.6-29.2   C3275.7,613.7,3288.6,600.9,3304.5,600.9 M3304.4,653.2c12.9,0,23.3-10.4,23.4-23.2c0.1-13-10.4-23.5-23.2-23.6   c-13.1-0.1-23.6,10.4-23.6,23.5C3281.1,642.7,3291.6,653.2,3304.4,653.2"></path>		<path class="st0" d="M3292.5,613h0.4h12.1c6.7,0,11.9,6,11.1,12.6c-0.4,3.3-2,5.9-4.7,7.8c-0.1,0-0.1,0.1-0.2,0.2c0,0,0,0,0,0.1   c0.2,0.5,0.5,0.9,0.7,1.4c1,2,1.7,4,2.5,6c0.6,1.6,1.1,3.1,1.7,4.7c0.1,0.3,0.2,0.5,0.4,0.8c-0.1,0-0.2,0-0.3,0   c-2.2,0-4.5,0-6.7,0c-0.2,0-0.3-0.1-0.4-0.3c-0.8-2.1-1.5-4.1-2.3-6.2c-0.5-1.3-1.1-2.5-1.9-3.6c-0.7-1-0.7-1-2-1h-3.6v11.1h-6.7   L3292.5,613L3292.5,613z M3299.2,624.2c0,1.4,0,2.7,0,4.1c0,0.3,0.1,0.4,0.4,0.4c1.8,0,3.6,0,5.4,0c2.4,0,4.4-2,4.4-4.5   c0-2.4-2-4.5-4.4-4.5c-1.8,0-3.6,0-5.5,0c-0.2,0-0.3,0.1-0.3,0.3C3299.2,621.5,3299.2,622.8,3299.2,624.2"></path>	</g></g></svg>